<svg width="630" height="630" viewBox="0 0 630 630" fill="none" xmlns="http://www.w3.org/2000/svg">
<g clip-path="url(#clip0_1854_92)">
<path opacity="0.5" d="M455.221 218.232L602.899 442.762L862.075 371.695L694.17 581.529L841.848 806.058L590.399 711.214L422.494 921.048L434.994 652.596L183.545 557.751L442.72 486.684L455.221 218.232Z" fill="#FF6262"/>
<path opacity="0.5" d="M695.414 233.914L674.044 501.806L922.221 604.912L660.837 667.372L639.468 935.263L499.293 705.974L237.91 768.433L412.661 564.265L272.486 334.976L520.663 438.082L695.414 233.914Z" fill="#FF6262"/>
<path d="M219.224 521V147H344.624C426.024 147 464.524 188.25 464.524 256.45C464.524 324.65 425.474 366.45 345.174 366.45H284.674V489.1C284.674 502.3 285.224 513.3 287.974 521H219.224ZM344.624 209.15H284.674V304.3H342.974C380.374 304.3 396.324 286.7 396.324 256.45C396.324 226.2 377.074 209.15 344.624 209.15Z" fill="white"/>
</g>
<defs>
<clipPath id="clip0_1854_92">
<rect width="630" height="630" fill="white"/>
</clipPath>
</defs>
</svg>
